<mxfile host="app.diagrams.net" modified="2022-11-22T14:52:08.556Z" agent="5.0 (Windows NT 10.0; Win64; x64) AppleWebKit/537.36 (KHTML, like Gecko) Chrome/107.0.0.0 Safari/537.36" etag="XUhOwKcUYixvyDmbqWA2" version="20.5.3" type="github">
  <diagram id="-edafhtojywYm4z94_LV" name="Страница 1">
    <mxGraphModel dx="369" dy="1375" grid="1" gridSize="10" guides="1" tooltips="1" connect="1" arrows="1" fold="1" page="1" pageScale="1" pageWidth="827" pageHeight="1169" math="0" shadow="1">
      <root>
        <mxCell id="0" />
        <mxCell id="1" parent="0" />
        <mxCell id="Fej6M75jO1chnc4TPpeF-1" value="Клиент" style="shape=umlActor;verticalLabelPosition=bottom;verticalAlign=top;html=1;outlineConnect=0;rounded=1;" vertex="1" parent="1">
          <mxGeometry x="40" width="40" height="80" as="geometry" />
        </mxCell>
        <mxCell id="Fej6M75jO1chnc4TPpeF-13" value="" style="edgeStyle=orthogonalEdgeStyle;rounded=1;orthogonalLoop=1;jettySize=auto;html=1;curved=1;" edge="1" parent="1" source="Fej6M75jO1chnc4TPpeF-4" target="Fej6M75jO1chnc4TPpeF-12">
          <mxGeometry relative="1" as="geometry" />
        </mxCell>
        <mxCell id="Fej6M75jO1chnc4TPpeF-4" value="" style="whiteSpace=wrap;html=1;verticalAlign=top;rounded=1;" vertex="1" parent="1">
          <mxGeometry x="40" y="120" width="40" height="270" as="geometry" />
        </mxCell>
        <mxCell id="Fej6M75jO1chnc4TPpeF-6" value="" style="endArrow=classic;html=1;rounded=1;curved=1;" edge="1" parent="1">
          <mxGeometry width="50" height="50" relative="1" as="geometry">
            <mxPoint x="80" y="160" as="sourcePoint" />
            <mxPoint x="80" y="240" as="targetPoint" />
            <Array as="points">
              <mxPoint x="80" y="160" />
              <mxPoint x="200" y="160" />
              <mxPoint x="200" y="240" />
            </Array>
          </mxGeometry>
        </mxCell>
        <mxCell id="Fej6M75jO1chnc4TPpeF-7" value="1. добавление товара в корзину" style="text;html=1;strokeColor=none;fillColor=none;align=center;verticalAlign=middle;whiteSpace=wrap;rounded=1;" vertex="1" parent="1">
          <mxGeometry x="200" y="140" width="60" height="30" as="geometry" />
        </mxCell>
        <mxCell id="Fej6M75jO1chnc4TPpeF-8" value="" style="endArrow=classic;html=1;rounded=1;entryX=1.032;entryY=0.888;entryDx=0;entryDy=0;entryPerimeter=0;curved=1;" edge="1" parent="1" target="Fej6M75jO1chnc4TPpeF-4">
          <mxGeometry width="50" height="50" relative="1" as="geometry">
            <mxPoint x="80" y="280" as="sourcePoint" />
            <mxPoint x="200" y="280" as="targetPoint" />
            <Array as="points">
              <mxPoint x="200" y="280" />
              <mxPoint x="200" y="360" />
            </Array>
          </mxGeometry>
        </mxCell>
        <mxCell id="Fej6M75jO1chnc4TPpeF-9" value="Оплата товара" style="text;html=1;strokeColor=none;fillColor=none;align=center;verticalAlign=middle;whiteSpace=wrap;rounded=1;" vertex="1" parent="1">
          <mxGeometry x="190" y="260" width="60" height="30" as="geometry" />
        </mxCell>
        <mxCell id="Fej6M75jO1chnc4TPpeF-10" value="Менеджер" style="shape=umlActor;verticalLabelPosition=bottom;verticalAlign=top;html=1;outlineConnect=0;rounded=1;" vertex="1" parent="1">
          <mxGeometry x="440" width="40" height="80" as="geometry" />
        </mxCell>
        <mxCell id="Fej6M75jO1chnc4TPpeF-22" style="edgeStyle=orthogonalEdgeStyle;rounded=1;orthogonalLoop=1;jettySize=auto;html=1;exitX=1;exitY=0.25;exitDx=0;exitDy=0;entryX=0;entryY=0.25;entryDx=0;entryDy=0;curved=1;" edge="1" parent="1" source="Fej6M75jO1chnc4TPpeF-11" target="Fej6M75jO1chnc4TPpeF-20">
          <mxGeometry relative="1" as="geometry" />
        </mxCell>
        <mxCell id="Fej6M75jO1chnc4TPpeF-11" value="" style="rounded=1;whiteSpace=wrap;html=1;" vertex="1" parent="1">
          <mxGeometry x="440" y="440" width="40" height="150" as="geometry" />
        </mxCell>
        <mxCell id="Fej6M75jO1chnc4TPpeF-14" style="edgeStyle=orthogonalEdgeStyle;rounded=1;orthogonalLoop=1;jettySize=auto;html=1;exitX=1;exitY=0.25;exitDx=0;exitDy=0;entryX=0;entryY=0.25;entryDx=0;entryDy=0;curved=1;" edge="1" parent="1" source="Fej6M75jO1chnc4TPpeF-12" target="Fej6M75jO1chnc4TPpeF-11">
          <mxGeometry relative="1" as="geometry" />
        </mxCell>
        <mxCell id="Fej6M75jO1chnc4TPpeF-12" value="" style="whiteSpace=wrap;html=1;verticalAlign=top;rounded=1;" vertex="1" parent="1">
          <mxGeometry x="40" y="440" width="40" height="150" as="geometry" />
        </mxCell>
        <mxCell id="Fej6M75jO1chnc4TPpeF-15" value="3. подтверждение заказа" style="text;html=1;strokeColor=none;fillColor=none;align=center;verticalAlign=middle;whiteSpace=wrap;rounded=1;" vertex="1" parent="1">
          <mxGeometry x="220" y="430" width="60" height="30" as="geometry" />
        </mxCell>
        <mxCell id="Fej6M75jO1chnc4TPpeF-17" value="Кладовщик" style="shape=umlActor;verticalLabelPosition=bottom;verticalAlign=top;html=1;outlineConnect=0;rounded=1;" vertex="1" parent="1">
          <mxGeometry x="640" width="40" height="80" as="geometry" />
        </mxCell>
        <mxCell id="Fej6M75jO1chnc4TPpeF-20" value="" style="rounded=1;whiteSpace=wrap;html=1;" vertex="1" parent="1">
          <mxGeometry x="640" y="440" width="40" height="150" as="geometry" />
        </mxCell>
        <mxCell id="Fej6M75jO1chnc4TPpeF-23" value="4. Запрос товара" style="text;html=1;strokeColor=none;fillColor=none;align=center;verticalAlign=middle;whiteSpace=wrap;rounded=1;" vertex="1" parent="1">
          <mxGeometry x="530" y="430" width="60" height="30" as="geometry" />
        </mxCell>
        <mxCell id="Fej6M75jO1chnc4TPpeF-24" style="edgeStyle=orthogonalEdgeStyle;rounded=1;orthogonalLoop=1;jettySize=auto;html=1;exitX=1;exitY=0.25;exitDx=0;exitDy=0;entryX=0.992;entryY=0.8;entryDx=0;entryDy=0;entryPerimeter=0;curved=1;" edge="1" parent="1" source="Fej6M75jO1chnc4TPpeF-20" target="Fej6M75jO1chnc4TPpeF-20">
          <mxGeometry relative="1" as="geometry">
            <Array as="points">
              <mxPoint x="730" y="478" />
              <mxPoint x="730" y="560" />
            </Array>
          </mxGeometry>
        </mxCell>
        <mxCell id="Fej6M75jO1chnc4TPpeF-25" value="5. &lt;br&gt;Поиск товара" style="text;html=1;strokeColor=none;fillColor=none;align=center;verticalAlign=middle;whiteSpace=wrap;rounded=1;" vertex="1" parent="1">
          <mxGeometry x="720" y="440" width="60" height="30" as="geometry" />
        </mxCell>
        <mxCell id="Fej6M75jO1chnc4TPpeF-27" value="6. Подтверждение товара" style="text;html=1;strokeColor=none;fillColor=none;align=center;verticalAlign=middle;whiteSpace=wrap;rounded=1;" vertex="1" parent="1">
          <mxGeometry x="540" y="520" width="60" height="30" as="geometry" />
        </mxCell>
        <mxCell id="Fej6M75jO1chnc4TPpeF-28" value="" style="endArrow=classic;html=1;rounded=1;exitX=-0.036;exitY=0.804;exitDx=0;exitDy=0;exitPerimeter=0;entryX=1;entryY=0.8;entryDx=0;entryDy=0;entryPerimeter=0;dashed=1;curved=1;" edge="1" parent="1" source="Fej6M75jO1chnc4TPpeF-20" target="Fej6M75jO1chnc4TPpeF-11">
          <mxGeometry width="50" height="50" relative="1" as="geometry">
            <mxPoint x="530" y="580" as="sourcePoint" />
            <mxPoint x="580" y="530" as="targetPoint" />
          </mxGeometry>
        </mxCell>
        <mxCell id="Fej6M75jO1chnc4TPpeF-29" value="" style="endArrow=classic;html=1;rounded=1;exitX=0.014;exitY=0.799;exitDx=0;exitDy=0;exitPerimeter=0;entryX=0.999;entryY=0.802;entryDx=0;entryDy=0;entryPerimeter=0;dashed=1;curved=1;" edge="1" parent="1" source="Fej6M75jO1chnc4TPpeF-11" target="Fej6M75jO1chnc4TPpeF-12">
          <mxGeometry width="50" height="50" relative="1" as="geometry">
            <mxPoint x="410" y="600" as="sourcePoint" />
            <mxPoint x="370" y="550" as="targetPoint" />
            <Array as="points">
              <mxPoint x="410" y="560" />
            </Array>
          </mxGeometry>
        </mxCell>
        <mxCell id="Fej6M75jO1chnc4TPpeF-30" value="7. подтверждение заказа" style="text;html=1;strokeColor=none;fillColor=none;align=center;verticalAlign=middle;whiteSpace=wrap;rounded=1;" vertex="1" parent="1">
          <mxGeometry x="210" y="520" width="60" height="30" as="geometry" />
        </mxCell>
        <mxCell id="Fej6M75jO1chnc4TPpeF-31" value="" style="endArrow=none;html=1;rounded=1;entryX=0.5;entryY=1;entryDx=0;entryDy=0;curved=1;" edge="1" parent="1" target="Fej6M75jO1chnc4TPpeF-20">
          <mxGeometry width="50" height="50" relative="1" as="geometry">
            <mxPoint x="660" y="640" as="sourcePoint" />
            <mxPoint x="690" y="590" as="targetPoint" />
          </mxGeometry>
        </mxCell>
        <mxCell id="Fej6M75jO1chnc4TPpeF-32" value="" style="rounded=1;whiteSpace=wrap;html=1;" vertex="1" parent="1">
          <mxGeometry x="639" y="640" width="40" height="150" as="geometry" />
        </mxCell>
        <mxCell id="Fej6M75jO1chnc4TPpeF-44" style="edgeStyle=orthogonalEdgeStyle;rounded=1;orthogonalLoop=1;jettySize=auto;html=1;exitX=0;exitY=0.75;exitDx=0;exitDy=0;curved=1;" edge="1" parent="1" source="Fej6M75jO1chnc4TPpeF-35" target="Fej6M75jO1chnc4TPpeF-43">
          <mxGeometry relative="1" as="geometry">
            <Array as="points">
              <mxPoint x="860" y="805" />
            </Array>
          </mxGeometry>
        </mxCell>
        <mxCell id="Fej6M75jO1chnc4TPpeF-35" value="" style="rounded=1;whiteSpace=wrap;html=1;" vertex="1" parent="1">
          <mxGeometry x="860" y="640" width="40" height="250" as="geometry" />
        </mxCell>
        <mxCell id="Fej6M75jO1chnc4TPpeF-37" value="8. передача товара" style="text;html=1;strokeColor=none;fillColor=none;align=center;verticalAlign=middle;whiteSpace=wrap;rounded=1;" vertex="1" parent="1">
          <mxGeometry x="740" y="670" width="60" height="30" as="geometry" />
        </mxCell>
        <mxCell id="Fej6M75jO1chnc4TPpeF-38" value="" style="endArrow=classic;html=1;rounded=1;entryX=-0.042;entryY=0.362;entryDx=0;entryDy=0;entryPerimeter=0;curved=1;" edge="1" parent="1" target="Fej6M75jO1chnc4TPpeF-35">
          <mxGeometry width="50" height="50" relative="1" as="geometry">
            <mxPoint x="680" y="730" as="sourcePoint" />
            <mxPoint x="730" y="710" as="targetPoint" />
          </mxGeometry>
        </mxCell>
        <mxCell id="Fej6M75jO1chnc4TPpeF-39" value="" style="endArrow=classic;html=1;rounded=1;exitX=1.045;exitY=0.36;exitDx=0;exitDy=0;exitPerimeter=0;curved=1;" edge="1" parent="1" source="Fej6M75jO1chnc4TPpeF-35">
          <mxGeometry width="50" height="50" relative="1" as="geometry">
            <mxPoint x="900" y="760" as="sourcePoint" />
            <mxPoint x="902" y="800" as="targetPoint" />
            <Array as="points">
              <mxPoint x="970" y="730" />
              <mxPoint x="970" y="800" />
            </Array>
          </mxGeometry>
        </mxCell>
        <mxCell id="Fej6M75jO1chnc4TPpeF-40" value="9. доставка" style="text;html=1;strokeColor=none;fillColor=none;align=center;verticalAlign=middle;whiteSpace=wrap;rounded=1;" vertex="1" parent="1">
          <mxGeometry x="910" y="700" width="60" height="30" as="geometry" />
        </mxCell>
        <mxCell id="Fej6M75jO1chnc4TPpeF-43" value="" style="rounded=1;whiteSpace=wrap;html=1;" vertex="1" parent="1">
          <mxGeometry x="40" y="680" width="40" height="250" as="geometry" />
        </mxCell>
        <mxCell id="Fej6M75jO1chnc4TPpeF-45" value="10. передача клиенту" style="text;html=1;strokeColor=none;fillColor=none;align=center;verticalAlign=middle;whiteSpace=wrap;rounded=1;" vertex="1" parent="1">
          <mxGeometry x="190" y="760" width="60" height="30" as="geometry" />
        </mxCell>
        <mxCell id="Fej6M75jO1chnc4TPpeF-48" value="" style="endArrow=none;html=1;rounded=1;shadow=1;curved=1;" edge="1" parent="1">
          <mxGeometry width="50" height="50" relative="1" as="geometry">
            <mxPoint x="1040" y="2350" as="sourcePoint" />
            <mxPoint x="1040" y="10" as="targetPoint" />
          </mxGeometry>
        </mxCell>
        <mxCell id="Fej6M75jO1chnc4TPpeF-50" value="Посадка на самолёт" style="text;html=1;strokeColor=none;fillColor=none;align=center;verticalAlign=middle;whiteSpace=wrap;rounded=1;" vertex="1" parent="1">
          <mxGeometry x="1260" y="-50" width="200" height="20" as="geometry" />
        </mxCell>
        <mxCell id="Fej6M75jO1chnc4TPpeF-54" value="" style="edgeStyle=orthogonalEdgeStyle;rounded=1;orthogonalLoop=1;jettySize=auto;html=1;curved=1;" edge="1" parent="1" source="Fej6M75jO1chnc4TPpeF-51" target="Fej6M75jO1chnc4TPpeF-53">
          <mxGeometry relative="1" as="geometry" />
        </mxCell>
        <mxCell id="Fej6M75jO1chnc4TPpeF-51" value="Клиент" style="shape=umlActor;verticalLabelPosition=bottom;verticalAlign=top;html=1;outlineConnect=0;rounded=1;" vertex="1" parent="1">
          <mxGeometry x="1080" width="40" height="80" as="geometry" />
        </mxCell>
        <mxCell id="Fej6M75jO1chnc4TPpeF-52" value="Работник&lt;br&gt;пункта&lt;br&gt;проверки 1" style="shape=umlActor;verticalLabelPosition=bottom;verticalAlign=top;html=1;outlineConnect=0;rounded=1;" vertex="1" parent="1">
          <mxGeometry x="1241" width="40" height="80" as="geometry" />
        </mxCell>
        <mxCell id="Fej6M75jO1chnc4TPpeF-58" style="edgeStyle=orthogonalEdgeStyle;rounded=1;orthogonalLoop=1;jettySize=auto;html=1;exitX=1;exitY=0.5;exitDx=0;exitDy=0;curved=1;" edge="1" parent="1">
          <mxGeometry relative="1" as="geometry">
            <mxPoint x="1120" y="431.5" as="sourcePoint" />
            <mxPoint x="1241" y="431.5" as="targetPoint" />
          </mxGeometry>
        </mxCell>
        <mxCell id="Fej6M75jO1chnc4TPpeF-81" value="" style="edgeStyle=orthogonalEdgeStyle;rounded=1;orthogonalLoop=1;jettySize=auto;html=1;endArrow=none;endFill=0;curved=1;" edge="1" parent="1" source="Fej6M75jO1chnc4TPpeF-53" target="Fej6M75jO1chnc4TPpeF-80">
          <mxGeometry relative="1" as="geometry" />
        </mxCell>
        <mxCell id="Fej6M75jO1chnc4TPpeF-53" value="" style="rounded=1;whiteSpace=wrap;html=1;" vertex="1" parent="1">
          <mxGeometry x="1080" y="161" width="40" height="639" as="geometry" />
        </mxCell>
        <mxCell id="Fej6M75jO1chnc4TPpeF-55" value="" style="endArrow=classic;html=1;rounded=1;exitX=1.021;exitY=0.029;exitDx=0;exitDy=0;exitPerimeter=0;entryX=1.015;entryY=0.14;entryDx=0;entryDy=0;entryPerimeter=0;curved=1;" edge="1" parent="1" source="Fej6M75jO1chnc4TPpeF-53" target="Fej6M75jO1chnc4TPpeF-53">
          <mxGeometry width="50" height="50" relative="1" as="geometry">
            <mxPoint x="1120.4399999999998" y="179.40300000000002" as="sourcePoint" />
            <mxPoint x="1120" y="250" as="targetPoint" />
            <Array as="points">
              <mxPoint x="1180" y="180" />
              <mxPoint x="1180" y="250" />
            </Array>
          </mxGeometry>
        </mxCell>
        <mxCell id="Fej6M75jO1chnc4TPpeF-56" value="1. Вход в аэропорт" style="text;html=1;strokeColor=none;fillColor=none;align=center;verticalAlign=middle;whiteSpace=wrap;rounded=1;" vertex="1" parent="1">
          <mxGeometry x="1120" y="200" width="60" height="30" as="geometry" />
        </mxCell>
        <mxCell id="Fej6M75jO1chnc4TPpeF-57" value="" style="rounded=1;whiteSpace=wrap;html=1;" vertex="1" parent="1">
          <mxGeometry x="1241" y="161" width="40" height="639" as="geometry" />
        </mxCell>
        <mxCell id="Fej6M75jO1chnc4TPpeF-59" value="2.Передача&lt;br&gt;багажа на&lt;br&gt;досмотр" style="text;html=1;strokeColor=none;fillColor=none;align=center;verticalAlign=middle;whiteSpace=wrap;rounded=1;" vertex="1" parent="1">
          <mxGeometry x="1150" y="390" width="60" height="30" as="geometry" />
        </mxCell>
        <mxCell id="Fej6M75jO1chnc4TPpeF-62" value="4. Осмотр клиента" style="text;html=1;strokeColor=none;fillColor=none;align=center;verticalAlign=middle;whiteSpace=wrap;rounded=1;" vertex="1" parent="1">
          <mxGeometry x="1150" y="508" width="60" height="30" as="geometry" />
        </mxCell>
        <mxCell id="Fej6M75jO1chnc4TPpeF-68" value="" style="endArrow=classic;html=1;rounded=1;entryX=1.027;entryY=0.688;entryDx=0;entryDy=0;entryPerimeter=0;dashed=1;curved=1;" edge="1" parent="1" target="Fej6M75jO1chnc4TPpeF-53">
          <mxGeometry width="50" height="50" relative="1" as="geometry">
            <mxPoint x="1240" y="600" as="sourcePoint" />
            <mxPoint x="1240" y="600" as="targetPoint" />
            <Array as="points">
              <mxPoint x="1190" y="600" />
            </Array>
          </mxGeometry>
        </mxCell>
        <mxCell id="Fej6M75jO1chnc4TPpeF-69" value="5. Окончание осмотра клиента" style="text;html=1;strokeColor=none;fillColor=none;align=center;verticalAlign=middle;whiteSpace=wrap;rounded=1;" vertex="1" parent="1">
          <mxGeometry x="1150" y="560" width="60" height="30" as="geometry" />
        </mxCell>
        <mxCell id="Fej6M75jO1chnc4TPpeF-70" value="" style="endArrow=classic;html=1;rounded=1;entryX=1.027;entryY=0.688;entryDx=0;entryDy=0;entryPerimeter=0;dashed=1;curved=1;" edge="1" parent="1">
          <mxGeometry width="50" height="50" relative="1" as="geometry">
            <mxPoint x="1240" y="678" as="sourcePoint" />
            <mxPoint x="1121.08" y="678.632" as="targetPoint" />
          </mxGeometry>
        </mxCell>
        <mxCell id="Fej6M75jO1chnc4TPpeF-71" value="6. Передача&lt;br&gt;багажа клиенту" style="text;html=1;strokeColor=none;fillColor=none;align=center;verticalAlign=middle;whiteSpace=wrap;rounded=1;" vertex="1" parent="1">
          <mxGeometry x="1150" y="636" width="60" height="30" as="geometry" />
        </mxCell>
        <mxCell id="Fej6M75jO1chnc4TPpeF-73" value="Контролёр" style="shape=umlActor;verticalLabelPosition=bottom;verticalAlign=top;html=1;outlineConnect=0;rounded=1;" vertex="1" parent="1">
          <mxGeometry x="1361" width="40" height="80" as="geometry" />
        </mxCell>
        <mxCell id="Fej6M75jO1chnc4TPpeF-74" value="" style="rounded=1;whiteSpace=wrap;html=1;" vertex="1" parent="1">
          <mxGeometry x="1361" y="840" width="39" height="220" as="geometry" />
        </mxCell>
        <mxCell id="Fej6M75jO1chnc4TPpeF-105" value="" style="edgeStyle=orthogonalEdgeStyle;rounded=1;orthogonalLoop=1;jettySize=auto;html=1;shadow=1;endArrow=none;endFill=0;curved=1;" edge="1" parent="1" source="Fej6M75jO1chnc4TPpeF-80" target="Fej6M75jO1chnc4TPpeF-104">
          <mxGeometry relative="1" as="geometry" />
        </mxCell>
        <mxCell id="Fej6M75jO1chnc4TPpeF-80" value="" style="whiteSpace=wrap;html=1;rounded=1;" vertex="1" parent="1">
          <mxGeometry x="1080" y="840" width="40" height="220" as="geometry" />
        </mxCell>
        <mxCell id="Fej6M75jO1chnc4TPpeF-82" value="" style="endArrow=classic;html=1;rounded=1;exitX=1.02;exitY=0.18;exitDx=0;exitDy=0;exitPerimeter=0;curved=1;" edge="1" parent="1" source="Fej6M75jO1chnc4TPpeF-80">
          <mxGeometry width="50" height="50" relative="1" as="geometry">
            <mxPoint x="1120" y="930" as="sourcePoint" />
            <mxPoint x="1360" y="880" as="targetPoint" />
          </mxGeometry>
        </mxCell>
        <mxCell id="Fej6M75jO1chnc4TPpeF-83" value="8. Регистрация" style="text;html=1;strokeColor=none;fillColor=none;align=center;verticalAlign=middle;whiteSpace=wrap;rounded=1;" vertex="1" parent="1">
          <mxGeometry x="1210" y="840" width="60" height="30" as="geometry" />
        </mxCell>
        <mxCell id="Fej6M75jO1chnc4TPpeF-84" value="" style="endArrow=classic;html=1;rounded=1;entryX=1.008;entryY=0.804;entryDx=0;entryDy=0;entryPerimeter=0;dashed=1;curved=1;" edge="1" parent="1">
          <mxGeometry width="50" height="50" relative="1" as="geometry">
            <mxPoint x="1360" y="1013" as="sourcePoint" />
            <mxPoint x="1120.32" y="1013.7999999999997" as="targetPoint" />
          </mxGeometry>
        </mxCell>
        <mxCell id="Fej6M75jO1chnc4TPpeF-85" value="10. Выдача билета клиенту" style="text;html=1;strokeColor=none;fillColor=none;align=center;verticalAlign=middle;whiteSpace=wrap;rounded=1;" vertex="1" parent="1">
          <mxGeometry x="1210.5" y="970" width="60" height="30" as="geometry" />
        </mxCell>
        <mxCell id="Fej6M75jO1chnc4TPpeF-86" value="" style="endArrow=classic;html=1;rounded=1;curved=1;" edge="1" parent="1">
          <mxGeometry width="50" height="50" relative="1" as="geometry">
            <mxPoint x="1240" y="540" as="sourcePoint" />
            <mxPoint x="1120" y="540" as="targetPoint" />
          </mxGeometry>
        </mxCell>
        <mxCell id="Fej6M75jO1chnc4TPpeF-88" value="" style="endArrow=classic;html=1;rounded=1;exitX=1.033;exitY=0.421;exitDx=0;exitDy=0;exitPerimeter=0;entryX=0.992;entryY=0.515;entryDx=0;entryDy=0;entryPerimeter=0;curved=1;" edge="1" parent="1" source="Fej6M75jO1chnc4TPpeF-57" target="Fej6M75jO1chnc4TPpeF-57">
          <mxGeometry width="50" height="50" relative="1" as="geometry">
            <mxPoint x="1280" y="480" as="sourcePoint" />
            <mxPoint x="1330" y="430" as="targetPoint" />
            <Array as="points">
              <mxPoint x="1340" y="430" />
              <mxPoint x="1340" y="490" />
            </Array>
          </mxGeometry>
        </mxCell>
        <mxCell id="Fej6M75jO1chnc4TPpeF-89" value="3. Осмотр&lt;br&gt;багажа" style="text;html=1;strokeColor=none;fillColor=none;align=center;verticalAlign=middle;whiteSpace=wrap;rounded=1;" vertex="1" parent="1">
          <mxGeometry x="1281" y="450" width="60" height="30" as="geometry" />
        </mxCell>
        <mxCell id="Fej6M75jO1chnc4TPpeF-92" value="" style="endArrow=classic;html=1;rounded=1;shadow=1;exitX=1;exitY=0.5;exitDx=0;exitDy=0;curved=1;" edge="1" parent="1" source="Fej6M75jO1chnc4TPpeF-80">
          <mxGeometry width="50" height="50" relative="1" as="geometry">
            <mxPoint x="1120" y="1000" as="sourcePoint" />
            <mxPoint x="1360" y="950" as="targetPoint" />
          </mxGeometry>
        </mxCell>
        <mxCell id="Fej6M75jO1chnc4TPpeF-93" value="9. Передача багажа" style="text;html=1;strokeColor=none;fillColor=none;align=center;verticalAlign=middle;whiteSpace=wrap;rounded=1;" vertex="1" parent="1">
          <mxGeometry x="1211" y="902" width="60" height="30" as="geometry" />
        </mxCell>
        <mxCell id="Fej6M75jO1chnc4TPpeF-96" value="Погрузчик" style="shape=umlActor;verticalLabelPosition=bottom;verticalAlign=top;html=1;outlineConnect=0;rounded=1;" vertex="1" parent="1">
          <mxGeometry x="1480" width="40" height="80" as="geometry" />
        </mxCell>
        <mxCell id="Fej6M75jO1chnc4TPpeF-98" value="" style="rounded=1;whiteSpace=wrap;html=1;" vertex="1" parent="1">
          <mxGeometry x="1481" y="841" width="39" height="220" as="geometry" />
        </mxCell>
        <mxCell id="Fej6M75jO1chnc4TPpeF-99" value="" style="endArrow=classic;html=1;rounded=1;shadow=1;exitX=1.036;exitY=0.179;exitDx=0;exitDy=0;exitPerimeter=0;curved=1;" edge="1" parent="1" source="Fej6M75jO1chnc4TPpeF-74">
          <mxGeometry width="50" height="50" relative="1" as="geometry">
            <mxPoint x="1400" y="930" as="sourcePoint" />
            <mxPoint x="1480" y="880" as="targetPoint" />
          </mxGeometry>
        </mxCell>
        <mxCell id="Fej6M75jO1chnc4TPpeF-100" value="11. Передача&lt;br&gt;багажа" style="text;html=1;strokeColor=none;fillColor=none;align=center;verticalAlign=middle;whiteSpace=wrap;rounded=1;" vertex="1" parent="1">
          <mxGeometry x="1410" y="845" width="60" height="30" as="geometry" />
        </mxCell>
        <mxCell id="Fej6M75jO1chnc4TPpeF-101" value="" style="endArrow=classic;html=1;rounded=1;shadow=1;exitX=1.036;exitY=0.179;exitDx=0;exitDy=0;exitPerimeter=0;entryX=1.023;entryY=0.542;entryDx=0;entryDy=0;entryPerimeter=0;curved=1;" edge="1" parent="1" target="Fej6M75jO1chnc4TPpeF-98">
          <mxGeometry width="50" height="50" relative="1" as="geometry">
            <mxPoint x="1520.004" y="880.0000000000001" as="sourcePoint" />
            <mxPoint x="1598.6" y="880.62" as="targetPoint" />
            <Array as="points">
              <mxPoint x="1600" y="880" />
              <mxPoint x="1600" y="960" />
            </Array>
          </mxGeometry>
        </mxCell>
        <mxCell id="Fej6M75jO1chnc4TPpeF-102" value="12. Погрузка" style="text;html=1;strokeColor=none;fillColor=none;align=center;verticalAlign=middle;whiteSpace=wrap;rounded=1;" vertex="1" parent="1">
          <mxGeometry x="1530" y="902" width="60" height="30" as="geometry" />
        </mxCell>
        <mxCell id="Fej6M75jO1chnc4TPpeF-103" value="Стюардесса&lt;br&gt;Мисс-Одесса" style="shape=umlActor;verticalLabelPosition=bottom;verticalAlign=top;html=1;outlineConnect=0;rounded=1;" vertex="1" parent="1">
          <mxGeometry x="1600" width="40" height="80" as="geometry" />
        </mxCell>
        <mxCell id="Fej6M75jO1chnc4TPpeF-104" value="" style="whiteSpace=wrap;html=1;rounded=1;" vertex="1" parent="1">
          <mxGeometry x="1080" y="1169" width="40" height="271" as="geometry" />
        </mxCell>
        <mxCell id="Fej6M75jO1chnc4TPpeF-106" value="" style="whiteSpace=wrap;html=1;rounded=1;" vertex="1" parent="1">
          <mxGeometry x="1599" y="1169" width="40" height="271" as="geometry" />
        </mxCell>
        <mxCell id="Fej6M75jO1chnc4TPpeF-108" value="" style="endArrow=classic;html=1;rounded=1;shadow=1;exitX=0.998;exitY=0.113;exitDx=0;exitDy=0;exitPerimeter=0;entryX=0.981;entryY=0.26;entryDx=0;entryDy=0;entryPerimeter=0;curved=1;" edge="1" parent="1" source="Fej6M75jO1chnc4TPpeF-104" target="Fej6M75jO1chnc4TPpeF-104">
          <mxGeometry width="50" height="50" relative="1" as="geometry">
            <mxPoint x="1120" y="1250" as="sourcePoint" />
            <mxPoint x="1170" y="1200" as="targetPoint" />
            <Array as="points">
              <mxPoint x="1160" y="1200" />
              <mxPoint x="1160" y="1240" />
            </Array>
          </mxGeometry>
        </mxCell>
        <mxCell id="Fej6M75jO1chnc4TPpeF-109" value="13. Зайти в самолёт" style="text;html=1;strokeColor=none;fillColor=none;align=center;verticalAlign=middle;whiteSpace=wrap;rounded=1;" vertex="1" parent="1">
          <mxGeometry x="1120" y="1169" width="60" height="30" as="geometry" />
        </mxCell>
        <mxCell id="Fej6M75jO1chnc4TPpeF-110" value="" style="endArrow=classic;html=1;rounded=1;shadow=1;exitX=0.979;exitY=0.41;exitDx=0;exitDy=0;exitPerimeter=0;entryX=-0.07;entryY=0.411;entryDx=0;entryDy=0;entryPerimeter=0;curved=1;" edge="1" parent="1" source="Fej6M75jO1chnc4TPpeF-104" target="Fej6M75jO1chnc4TPpeF-106">
          <mxGeometry width="50" height="50" relative="1" as="geometry">
            <mxPoint x="1120" y="1330" as="sourcePoint" />
            <mxPoint x="1170" y="1280" as="targetPoint" />
          </mxGeometry>
        </mxCell>
        <mxCell id="Fej6M75jO1chnc4TPpeF-111" value="14. Передача билета" style="text;html=1;strokeColor=none;fillColor=none;align=center;verticalAlign=middle;whiteSpace=wrap;rounded=1;" vertex="1" parent="1">
          <mxGeometry x="1301" y="1240" width="60" height="30" as="geometry" />
        </mxCell>
        <mxCell id="Fej6M75jO1chnc4TPpeF-112" value="" style="endArrow=classic;html=1;rounded=1;shadow=1;entryX=1.015;entryY=0.559;entryDx=0;entryDy=0;entryPerimeter=0;exitX=0.002;exitY=0.558;exitDx=0;exitDy=0;exitPerimeter=0;dashed=1;curved=1;" edge="1" parent="1">
          <mxGeometry width="50" height="50" relative="1" as="geometry">
            <mxPoint x="1599.08" y="1321.2179999999998" as="sourcePoint" />
            <mxPoint x="1120.6" y="1321.489" as="targetPoint" />
          </mxGeometry>
        </mxCell>
        <mxCell id="Fej6M75jO1chnc4TPpeF-113" value="16.Передача посадочного талона" style="text;html=1;strokeColor=none;fillColor=none;align=center;verticalAlign=middle;whiteSpace=wrap;rounded=1;" vertex="1" parent="1">
          <mxGeometry x="1301" y="1292" width="60" height="30" as="geometry" />
        </mxCell>
        <mxCell id="Fej6M75jO1chnc4TPpeF-115" value="" style="endArrow=classic;html=1;rounded=1;shadow=1;entryX=0.993;entryY=0.555;entryDx=0;entryDy=0;entryPerimeter=0;curved=1;" edge="1" parent="1" target="Fej6M75jO1chnc4TPpeF-106">
          <mxGeometry width="50" height="50" relative="1" as="geometry">
            <mxPoint x="1640" y="1280" as="sourcePoint" />
            <mxPoint x="1690" y="1280" as="targetPoint" />
            <Array as="points">
              <mxPoint x="1680" y="1280" />
              <mxPoint x="1680" y="1320" />
            </Array>
          </mxGeometry>
        </mxCell>
        <mxCell id="Fej6M75jO1chnc4TPpeF-116" value="15. Порвать билет" style="text;html=1;strokeColor=none;fillColor=none;align=center;verticalAlign=middle;whiteSpace=wrap;rounded=1;" vertex="1" parent="1">
          <mxGeometry x="1640" y="1244" width="60" height="30" as="geometry" />
        </mxCell>
        <mxCell id="Fej6M75jO1chnc4TPpeF-117" value="" style="endArrow=classic;html=1;rounded=1;shadow=1;entryX=1;entryY=1;entryDx=0;entryDy=0;curved=1;" edge="1" parent="1" target="Fej6M75jO1chnc4TPpeF-104">
          <mxGeometry width="50" height="50" relative="1" as="geometry">
            <mxPoint x="1120" y="1360" as="sourcePoint" />
            <mxPoint x="1170" y="1310" as="targetPoint" />
            <Array as="points">
              <mxPoint x="1160" y="1360" />
              <mxPoint x="1200" y="1360" />
              <mxPoint x="1200" y="1400" />
              <mxPoint x="1200" y="1440" />
              <mxPoint x="1160" y="1440" />
            </Array>
          </mxGeometry>
        </mxCell>
        <mxCell id="Fej6M75jO1chnc4TPpeF-118" value="17. Занять своё место" style="text;html=1;strokeColor=none;fillColor=none;align=center;verticalAlign=middle;whiteSpace=wrap;rounded=1;" vertex="1" parent="1">
          <mxGeometry x="1130" y="1380" width="60" height="30" as="geometry" />
        </mxCell>
        <mxCell id="Fej6M75jO1chnc4TPpeF-119" value="Диаграмма состояний" style="text;html=1;strokeColor=none;fillColor=none;align=center;verticalAlign=middle;whiteSpace=wrap;rounded=1;" vertex="1" parent="1">
          <mxGeometry x="2160" width="80" height="40" as="geometry" />
        </mxCell>
        <mxCell id="Fej6M75jO1chnc4TPpeF-122" value="" style="edgeStyle=orthogonalEdgeStyle;rounded=1;orthogonalLoop=1;jettySize=auto;html=1;curved=1;" edge="1" parent="1" source="Fej6M75jO1chnc4TPpeF-120" target="Fej6M75jO1chnc4TPpeF-121">
          <mxGeometry relative="1" as="geometry" />
        </mxCell>
        <mxCell id="Fej6M75jO1chnc4TPpeF-120" value="" style="ellipse;whiteSpace=wrap;html=1;aspect=fixed;fillColor=#6a00ff;strokeColor=#3700CC;fontColor=#ffffff;rounded=1;" vertex="1" parent="1">
          <mxGeometry x="2190" y="50" width="20" height="20" as="geometry" />
        </mxCell>
        <mxCell id="Fej6M75jO1chnc4TPpeF-125" value="" style="edgeStyle=orthogonalEdgeStyle;rounded=1;orthogonalLoop=1;jettySize=auto;html=1;startArrow=none;startFill=0;endArrow=classic;endFill=1;curved=1;" edge="1" parent="1" source="Fej6M75jO1chnc4TPpeF-121" target="Fej6M75jO1chnc4TPpeF-124">
          <mxGeometry relative="1" as="geometry" />
        </mxCell>
        <mxCell id="Fej6M75jO1chnc4TPpeF-121" value="" style="whiteSpace=wrap;html=1;rounded=1;" vertex="1" parent="1">
          <mxGeometry x="2140" y="130" width="120" height="60" as="geometry" />
        </mxCell>
        <mxCell id="Fej6M75jO1chnc4TPpeF-123" value="Ожидает оплаты" style="text;html=1;strokeColor=none;fillColor=none;align=center;verticalAlign=middle;whiteSpace=wrap;rounded=1;" vertex="1" parent="1">
          <mxGeometry x="2170" y="145" width="60" height="30" as="geometry" />
        </mxCell>
        <mxCell id="Fej6M75jO1chnc4TPpeF-132" style="edgeStyle=orthogonalEdgeStyle;rounded=1;orthogonalLoop=1;jettySize=auto;html=1;exitX=0.5;exitY=1;exitDx=0;exitDy=0;entryX=0.5;entryY=0;entryDx=0;entryDy=0;endArrow=classic;endFill=1;curved=1;" edge="1" parent="1" source="Fej6M75jO1chnc4TPpeF-124" target="Fej6M75jO1chnc4TPpeF-130">
          <mxGeometry relative="1" as="geometry" />
        </mxCell>
        <mxCell id="Fej6M75jO1chnc4TPpeF-134" style="edgeStyle=orthogonalEdgeStyle;curved=1;rounded=1;orthogonalLoop=1;jettySize=auto;html=1;exitX=0.5;exitY=1;exitDx=0;exitDy=0;entryX=0.5;entryY=0;entryDx=0;entryDy=0;endArrow=classic;endFill=1;startArrow=none;" edge="1" parent="1" source="Fej6M75jO1chnc4TPpeF-136" target="Fej6M75jO1chnc4TPpeF-133">
          <mxGeometry relative="1" as="geometry">
            <Array as="points">
              <mxPoint x="2330" y="360" />
              <mxPoint x="2370" y="360" />
            </Array>
          </mxGeometry>
        </mxCell>
        <mxCell id="Fej6M75jO1chnc4TPpeF-141" style="edgeStyle=orthogonalEdgeStyle;curved=1;rounded=1;orthogonalLoop=1;jettySize=auto;html=1;endArrow=classic;endFill=1;" edge="1" parent="1" source="Fej6M75jO1chnc4TPpeF-124" target="Fej6M75jO1chnc4TPpeF-140">
          <mxGeometry relative="1" as="geometry" />
        </mxCell>
        <mxCell id="Fej6M75jO1chnc4TPpeF-124" value="Ожидает подтверждения от поставщика" style="whiteSpace=wrap;html=1;rounded=1;" vertex="1" parent="1">
          <mxGeometry x="2140" y="270" width="120" height="60" as="geometry" />
        </mxCell>
        <mxCell id="Fej6M75jO1chnc4TPpeF-152" style="edgeStyle=orthogonalEdgeStyle;curved=1;rounded=1;orthogonalLoop=1;jettySize=auto;html=1;exitX=0;exitY=1;exitDx=0;exitDy=0;endArrow=classic;endFill=1;" edge="1" parent="1" source="Fej6M75jO1chnc4TPpeF-130" target="Fej6M75jO1chnc4TPpeF-151">
          <mxGeometry relative="1" as="geometry" />
        </mxCell>
        <mxCell id="Fej6M75jO1chnc4TPpeF-130" value="На складе" style="whiteSpace=wrap;html=1;rounded=1;" vertex="1" parent="1">
          <mxGeometry x="2040" y="360" width="120" height="60" as="geometry" />
        </mxCell>
        <mxCell id="Fej6M75jO1chnc4TPpeF-153" style="edgeStyle=orthogonalEdgeStyle;curved=1;rounded=1;orthogonalLoop=1;jettySize=auto;html=1;exitX=1;exitY=1;exitDx=0;exitDy=0;entryX=0.5;entryY=0;entryDx=0;entryDy=0;endArrow=classic;endFill=1;" edge="1" parent="1" source="Fej6M75jO1chnc4TPpeF-133" target="Fej6M75jO1chnc4TPpeF-151">
          <mxGeometry relative="1" as="geometry" />
        </mxCell>
        <mxCell id="Fej6M75jO1chnc4TPpeF-133" value="Отмена заказа" style="whiteSpace=wrap;html=1;rounded=1;" vertex="1" parent="1">
          <mxGeometry x="2310" y="370" width="120" height="60" as="geometry" />
        </mxCell>
        <mxCell id="Fej6M75jO1chnc4TPpeF-136" value="отказ поставщика" style="text;html=1;strokeColor=none;fillColor=none;align=center;verticalAlign=middle;whiteSpace=wrap;rounded=1;" vertex="1" parent="1">
          <mxGeometry x="2300" y="320" width="60" height="30" as="geometry" />
        </mxCell>
        <mxCell id="Fej6M75jO1chnc4TPpeF-137" value="" style="edgeStyle=orthogonalEdgeStyle;curved=1;rounded=1;orthogonalLoop=1;jettySize=auto;html=1;exitX=0.5;exitY=1;exitDx=0;exitDy=0;entryX=0;entryY=0.5;entryDx=0;entryDy=0;endArrow=none;endFill=1;" edge="1" parent="1" source="Fej6M75jO1chnc4TPpeF-124" target="Fej6M75jO1chnc4TPpeF-136">
          <mxGeometry relative="1" as="geometry">
            <mxPoint x="2200" y="330" as="sourcePoint" />
            <mxPoint x="2370" y="370" as="targetPoint" />
          </mxGeometry>
        </mxCell>
        <mxCell id="Fej6M75jO1chnc4TPpeF-142" style="edgeStyle=orthogonalEdgeStyle;curved=1;rounded=1;orthogonalLoop=1;jettySize=auto;html=1;exitX=0.5;exitY=0;exitDx=0;exitDy=0;entryX=0.5;entryY=1;entryDx=0;entryDy=0;endArrow=classic;endFill=1;startArrow=none;" edge="1" parent="1" source="Fej6M75jO1chnc4TPpeF-144" target="Fej6M75jO1chnc4TPpeF-133">
          <mxGeometry relative="1" as="geometry" />
        </mxCell>
        <mxCell id="Fej6M75jO1chnc4TPpeF-146" style="edgeStyle=orthogonalEdgeStyle;curved=1;rounded=1;orthogonalLoop=1;jettySize=auto;html=1;entryX=0.5;entryY=1;entryDx=0;entryDy=0;endArrow=classic;endFill=1;startArrow=none;" edge="1" parent="1" source="Fej6M75jO1chnc4TPpeF-147" target="Fej6M75jO1chnc4TPpeF-130">
          <mxGeometry relative="1" as="geometry" />
        </mxCell>
        <mxCell id="Fej6M75jO1chnc4TPpeF-140" value="Запрос отмены" style="whiteSpace=wrap;html=1;rounded=1;" vertex="1" parent="1">
          <mxGeometry x="2180" y="470" width="120" height="60" as="geometry" />
        </mxCell>
        <mxCell id="Fej6M75jO1chnc4TPpeF-144" value="заказ отменён" style="text;html=1;strokeColor=none;fillColor=none;align=center;verticalAlign=middle;whiteSpace=wrap;rounded=1;" vertex="1" parent="1">
          <mxGeometry x="2340" y="485" width="60" height="30" as="geometry" />
        </mxCell>
        <mxCell id="Fej6M75jO1chnc4TPpeF-145" value="" style="edgeStyle=orthogonalEdgeStyle;curved=1;rounded=1;orthogonalLoop=1;jettySize=auto;html=1;exitX=1;exitY=0.5;exitDx=0;exitDy=0;entryX=0;entryY=0.5;entryDx=0;entryDy=0;endArrow=none;endFill=1;" edge="1" parent="1" source="Fej6M75jO1chnc4TPpeF-140" target="Fej6M75jO1chnc4TPpeF-144">
          <mxGeometry relative="1" as="geometry">
            <mxPoint x="2290" y="500" as="sourcePoint" />
            <mxPoint x="2370" y="430" as="targetPoint" />
            <Array as="points" />
          </mxGeometry>
        </mxCell>
        <mxCell id="Fej6M75jO1chnc4TPpeF-147" value="заказ не отменён" style="text;html=1;strokeColor=none;fillColor=none;align=center;verticalAlign=middle;whiteSpace=wrap;rounded=1;" vertex="1" parent="1">
          <mxGeometry x="2070" y="487.75" width="60" height="24.5" as="geometry" />
        </mxCell>
        <mxCell id="Fej6M75jO1chnc4TPpeF-148" value="" style="edgeStyle=orthogonalEdgeStyle;curved=1;rounded=1;orthogonalLoop=1;jettySize=auto;html=1;exitX=0;exitY=0.5;exitDx=0;exitDy=0;entryX=1;entryY=0.5;entryDx=0;entryDy=0;endArrow=none;endFill=1;" edge="1" parent="1" source="Fej6M75jO1chnc4TPpeF-140" target="Fej6M75jO1chnc4TPpeF-147">
          <mxGeometry relative="1" as="geometry">
            <mxPoint x="2180" y="500" as="sourcePoint" />
            <mxPoint x="2100" y="420" as="targetPoint" />
          </mxGeometry>
        </mxCell>
        <mxCell id="Fej6M75jO1chnc4TPpeF-155" style="edgeStyle=orthogonalEdgeStyle;curved=1;rounded=1;orthogonalLoop=1;jettySize=auto;html=1;exitX=0.5;exitY=1;exitDx=0;exitDy=0;entryX=0.5;entryY=0;entryDx=0;entryDy=0;endArrow=classic;endFill=1;" edge="1" parent="1" source="Fej6M75jO1chnc4TPpeF-151" target="Fej6M75jO1chnc4TPpeF-154">
          <mxGeometry relative="1" as="geometry" />
        </mxCell>
        <mxCell id="Fej6M75jO1chnc4TPpeF-151" value="Заказ закрыт" style="whiteSpace=wrap;html=1;rounded=1;" vertex="1" parent="1">
          <mxGeometry x="2170" y="640" width="120" height="60" as="geometry" />
        </mxCell>
        <mxCell id="Fej6M75jO1chnc4TPpeF-154" value="" style="ellipse;whiteSpace=wrap;html=1;aspect=fixed;fillColor=#6a00ff;strokeColor=#3700CC;fontColor=#ffffff;rounded=1;" vertex="1" parent="1">
          <mxGeometry x="2220" y="750" width="20" height="20" as="geometry" />
        </mxCell>
        <mxCell id="Fej6M75jO1chnc4TPpeF-156" value="Диаграмма состояний Миши" style="text;html=1;strokeColor=none;fillColor=none;align=center;verticalAlign=middle;whiteSpace=wrap;rounded=1;" vertex="1" parent="1">
          <mxGeometry x="2820" y="-10" width="80" height="40" as="geometry" />
        </mxCell>
        <mxCell id="Fej6M75jO1chnc4TPpeF-184" style="edgeStyle=orthogonalEdgeStyle;curved=1;rounded=1;orthogonalLoop=1;jettySize=auto;html=1;exitX=0.5;exitY=1;exitDx=0;exitDy=0;endArrow=classic;endFill=1;entryX=0.5;entryY=0;entryDx=0;entryDy=0;" edge="1" parent="1" source="Fej6M75jO1chnc4TPpeF-158" target="Fej6M75jO1chnc4TPpeF-188">
          <mxGeometry relative="1" as="geometry">
            <mxPoint x="2860" y="145.00000000000023" as="targetPoint" />
            <Array as="points" />
          </mxGeometry>
        </mxCell>
        <mxCell id="Fej6M75jO1chnc4TPpeF-194" style="edgeStyle=orthogonalEdgeStyle;curved=1;rounded=1;orthogonalLoop=1;jettySize=auto;html=1;exitX=0.5;exitY=1;exitDx=0;exitDy=0;entryX=0.5;entryY=0;entryDx=0;entryDy=0;endArrow=classic;endFill=1;" edge="1" parent="1" source="Fej6M75jO1chnc4TPpeF-158" target="Fej6M75jO1chnc4TPpeF-193">
          <mxGeometry relative="1" as="geometry" />
        </mxCell>
        <mxCell id="Fej6M75jO1chnc4TPpeF-158" value="" style="ellipse;whiteSpace=wrap;html=1;aspect=fixed;fillColor=#6a00ff;strokeColor=#3700CC;fontColor=#ffffff;rounded=1;" vertex="1" parent="1">
          <mxGeometry x="2850" y="40" width="20" height="20" as="geometry" />
        </mxCell>
        <mxCell id="Fej6M75jO1chnc4TPpeF-198" value="" style="edgeStyle=orthogonalEdgeStyle;curved=1;rounded=1;orthogonalLoop=1;jettySize=auto;html=1;endArrow=classic;endFill=1;" edge="1" parent="1" source="Fej6M75jO1chnc4TPpeF-188" target="Fej6M75jO1chnc4TPpeF-197">
          <mxGeometry relative="1" as="geometry" />
        </mxCell>
        <mxCell id="Fej6M75jO1chnc4TPpeF-202" style="edgeStyle=orthogonalEdgeStyle;curved=1;rounded=1;orthogonalLoop=1;jettySize=auto;html=1;exitX=0.5;exitY=1;exitDx=0;exitDy=0;entryX=0.5;entryY=0;entryDx=0;entryDy=0;endArrow=classic;endFill=1;" edge="1" parent="1" source="Fej6M75jO1chnc4TPpeF-188" target="Fej6M75jO1chnc4TPpeF-201">
          <mxGeometry relative="1" as="geometry" />
        </mxCell>
        <mxCell id="Fej6M75jO1chnc4TPpeF-188" value="Досмотр пройден" style="rounded=1;whiteSpace=wrap;html=1;rotation=0;" vertex="1" parent="1">
          <mxGeometry x="2720" y="120" width="120" height="60" as="geometry" />
        </mxCell>
        <mxCell id="Fej6M75jO1chnc4TPpeF-196" value="" style="edgeStyle=orthogonalEdgeStyle;curved=1;rounded=1;orthogonalLoop=1;jettySize=auto;html=1;endArrow=classic;endFill=1;" edge="1" parent="1" source="Fej6M75jO1chnc4TPpeF-193" target="Fej6M75jO1chnc4TPpeF-195">
          <mxGeometry relative="1" as="geometry" />
        </mxCell>
        <mxCell id="Fej6M75jO1chnc4TPpeF-193" value="Досмотр пройден" style="rounded=1;whiteSpace=wrap;html=1;rotation=0;" vertex="1" parent="1">
          <mxGeometry x="2880" y="120" width="120" height="60" as="geometry" />
        </mxCell>
        <mxCell id="Fej6M75jO1chnc4TPpeF-220" value="" style="edgeStyle=orthogonalEdgeStyle;curved=1;rounded=1;orthogonalLoop=1;jettySize=auto;html=1;endArrow=classic;endFill=1;" edge="1" parent="1" source="Fej6M75jO1chnc4TPpeF-195" target="Fej6M75jO1chnc4TPpeF-219">
          <mxGeometry relative="1" as="geometry" />
        </mxCell>
        <mxCell id="Fej6M75jO1chnc4TPpeF-222" style="edgeStyle=orthogonalEdgeStyle;curved=1;rounded=1;orthogonalLoop=1;jettySize=auto;html=1;exitX=0.5;exitY=1;exitDx=0;exitDy=0;entryX=0.5;entryY=0;entryDx=0;entryDy=0;endArrow=classic;endFill=1;" edge="1" parent="1" source="Fej6M75jO1chnc4TPpeF-195" target="Fej6M75jO1chnc4TPpeF-221">
          <mxGeometry relative="1" as="geometry" />
        </mxCell>
        <mxCell id="Fej6M75jO1chnc4TPpeF-195" value="Неудача" style="rounded=1;whiteSpace=wrap;html=1;rotation=0;" vertex="1" parent="1">
          <mxGeometry x="2880" y="600" width="120" height="60" as="geometry" />
        </mxCell>
        <mxCell id="Fej6M75jO1chnc4TPpeF-207" value="" style="edgeStyle=orthogonalEdgeStyle;curved=1;rounded=1;orthogonalLoop=1;jettySize=auto;html=1;endArrow=classic;endFill=1;" edge="1" parent="1" source="Fej6M75jO1chnc4TPpeF-197" target="Fej6M75jO1chnc4TPpeF-206">
          <mxGeometry relative="1" as="geometry" />
        </mxCell>
        <mxCell id="Fej6M75jO1chnc4TPpeF-210" style="edgeStyle=orthogonalEdgeStyle;curved=1;rounded=1;orthogonalLoop=1;jettySize=auto;html=1;exitX=0.5;exitY=1;exitDx=0;exitDy=0;endArrow=classic;endFill=1;" edge="1" parent="1" source="Fej6M75jO1chnc4TPpeF-197" target="Fej6M75jO1chnc4TPpeF-209">
          <mxGeometry relative="1" as="geometry" />
        </mxCell>
        <mxCell id="Fej6M75jO1chnc4TPpeF-197" value="Билет получен" style="rounded=1;whiteSpace=wrap;html=1;rotation=0;" vertex="1" parent="1">
          <mxGeometry x="2650" y="260" width="120" height="60" as="geometry" />
        </mxCell>
        <mxCell id="Fej6M75jO1chnc4TPpeF-212" style="edgeStyle=orthogonalEdgeStyle;curved=1;rounded=1;orthogonalLoop=1;jettySize=auto;html=1;exitX=0.75;exitY=1;exitDx=0;exitDy=0;entryX=0.5;entryY=0;entryDx=0;entryDy=0;endArrow=classic;endFill=1;" edge="1" parent="1" source="Fej6M75jO1chnc4TPpeF-201" target="Fej6M75jO1chnc4TPpeF-195">
          <mxGeometry relative="1" as="geometry" />
        </mxCell>
        <mxCell id="Fej6M75jO1chnc4TPpeF-201" value="Овербукинг" style="rounded=1;whiteSpace=wrap;html=1;rotation=0;" vertex="1" parent="1">
          <mxGeometry x="2790" y="260" width="120" height="60" as="geometry" />
        </mxCell>
        <mxCell id="Fej6M75jO1chnc4TPpeF-215" style="edgeStyle=orthogonalEdgeStyle;curved=1;rounded=1;orthogonalLoop=1;jettySize=auto;html=1;exitX=0.5;exitY=1;exitDx=0;exitDy=0;endArrow=classic;endFill=1;" edge="1" parent="1" source="Fej6M75jO1chnc4TPpeF-206" target="Fej6M75jO1chnc4TPpeF-214">
          <mxGeometry relative="1" as="geometry" />
        </mxCell>
        <mxCell id="Fej6M75jO1chnc4TPpeF-206" value="Посадка удачна" style="rounded=1;whiteSpace=wrap;html=1;rotation=0;" vertex="1" parent="1">
          <mxGeometry x="2580" y="390" width="120" height="60" as="geometry" />
        </mxCell>
        <mxCell id="Fej6M75jO1chnc4TPpeF-211" style="edgeStyle=orthogonalEdgeStyle;curved=1;rounded=1;orthogonalLoop=1;jettySize=auto;html=1;exitX=0.75;exitY=1;exitDx=0;exitDy=0;entryX=0.5;entryY=0;entryDx=0;entryDy=0;endArrow=classic;endFill=1;" edge="1" parent="1" source="Fej6M75jO1chnc4TPpeF-209" target="Fej6M75jO1chnc4TPpeF-195">
          <mxGeometry relative="1" as="geometry" />
        </mxCell>
        <mxCell id="Fej6M75jO1chnc4TPpeF-209" value="Посадка неудачна" style="rounded=1;whiteSpace=wrap;html=1;rotation=0;" vertex="1" parent="1">
          <mxGeometry x="2720" y="390" width="120" height="60" as="geometry" />
        </mxCell>
        <mxCell id="Fej6M75jO1chnc4TPpeF-218" style="edgeStyle=orthogonalEdgeStyle;curved=1;rounded=1;orthogonalLoop=1;jettySize=auto;html=1;exitX=0.5;exitY=1;exitDx=0;exitDy=0;entryX=0;entryY=0.5;entryDx=0;entryDy=0;endArrow=classic;endFill=1;" edge="1" parent="1" source="Fej6M75jO1chnc4TPpeF-214" target="Fej6M75jO1chnc4TPpeF-217">
          <mxGeometry relative="1" as="geometry" />
        </mxCell>
        <mxCell id="Fej6M75jO1chnc4TPpeF-214" value="Удача" style="rounded=1;whiteSpace=wrap;html=1;rotation=0;" vertex="1" parent="1">
          <mxGeometry x="2580" y="600" width="120" height="60" as="geometry" />
        </mxCell>
        <mxCell id="Fej6M75jO1chnc4TPpeF-217" value="" style="ellipse;whiteSpace=wrap;html=1;aspect=fixed;fillColor=#6a00ff;strokeColor=#3700CC;fontColor=#ffffff;rounded=1;" vertex="1" parent="1">
          <mxGeometry x="2750" y="790" width="20" height="20" as="geometry" />
        </mxCell>
        <mxCell id="Fej6M75jO1chnc4TPpeF-223" style="edgeStyle=orthogonalEdgeStyle;curved=1;rounded=1;orthogonalLoop=1;jettySize=auto;html=1;exitX=0.5;exitY=1;exitDx=0;exitDy=0;entryX=1;entryY=0.5;entryDx=0;entryDy=0;endArrow=classic;endFill=1;" edge="1" parent="1" source="Fej6M75jO1chnc4TPpeF-219" target="Fej6M75jO1chnc4TPpeF-217">
          <mxGeometry relative="1" as="geometry" />
        </mxCell>
        <mxCell id="Fej6M75jO1chnc4TPpeF-219" value="Вина клиента" style="rounded=1;whiteSpace=wrap;html=1;rotation=0;" vertex="1" parent="1">
          <mxGeometry x="2800" y="700" width="120" height="60" as="geometry" />
        </mxCell>
        <mxCell id="Fej6M75jO1chnc4TPpeF-224" style="edgeStyle=orthogonalEdgeStyle;curved=1;rounded=1;orthogonalLoop=1;jettySize=auto;html=1;exitX=0.75;exitY=0;exitDx=0;exitDy=0;endArrow=classic;endFill=1;" edge="1" parent="1" source="Fej6M75jO1chnc4TPpeF-221" target="Fej6M75jO1chnc4TPpeF-158">
          <mxGeometry relative="1" as="geometry">
            <Array as="points">
              <mxPoint x="3080" y="700" />
              <mxPoint x="3080" y="80" />
              <mxPoint x="2860" y="80" />
            </Array>
          </mxGeometry>
        </mxCell>
        <mxCell id="Fej6M75jO1chnc4TPpeF-221" value="Вина компании" style="rounded=1;whiteSpace=wrap;html=1;rotation=0;" vertex="1" parent="1">
          <mxGeometry x="2960" y="700" width="120" height="60" as="geometry" />
        </mxCell>
        <mxCell id="Fej6M75jO1chnc4TPpeF-233" value="Misha" style="swimlane;fontStyle=1;align=center;verticalAlign=top;childLayout=stackLayout;horizontal=1;startSize=26;horizontalStack=0;resizeParent=1;resizeParentMax=0;resizeLast=0;collapsible=1;marginBottom=0;rounded=1;" vertex="1" parent="1">
          <mxGeometry x="3400" y="650" width="160" height="138" as="geometry" />
        </mxCell>
        <mxCell id="Fej6M75jO1chnc4TPpeF-234" value="- state: State" style="text;strokeColor=none;fillColor=none;align=left;verticalAlign=top;spacingLeft=4;spacingRight=4;overflow=hidden;rotatable=0;points=[[0,0.5],[1,0.5]];portConstraint=eastwest;rounded=1;" vertex="1" parent="Fej6M75jO1chnc4TPpeF-233">
          <mxGeometry y="26" width="160" height="26" as="geometry" />
        </mxCell>
        <mxCell id="Fej6M75jO1chnc4TPpeF-237" value="- age: int" style="text;strokeColor=none;fillColor=none;align=left;verticalAlign=top;spacingLeft=4;spacingRight=4;overflow=hidden;rotatable=0;points=[[0,0.5],[1,0.5]];portConstraint=eastwest;rounded=1;" vertex="1" parent="Fej6M75jO1chnc4TPpeF-233">
          <mxGeometry y="52" width="160" height="26" as="geometry" />
        </mxCell>
        <mxCell id="Fej6M75jO1chnc4TPpeF-235" value="" style="line;strokeWidth=1;fillColor=none;align=left;verticalAlign=middle;spacingTop=-1;spacingLeft=3;spacingRight=3;rotatable=0;labelPosition=right;points=[];portConstraint=eastwest;strokeColor=inherit;rounded=1;" vertex="1" parent="Fej6M75jO1chnc4TPpeF-233">
          <mxGeometry y="78" width="160" height="8" as="geometry" />
        </mxCell>
        <mxCell id="Fej6M75jO1chnc4TPpeF-236" value="+ getAge(): int&#xa;" style="text;strokeColor=none;fillColor=none;align=left;verticalAlign=top;spacingLeft=4;spacingRight=4;overflow=hidden;rotatable=0;points=[[0,0.5],[1,0.5]];portConstraint=eastwest;rounded=1;" vertex="1" parent="Fej6M75jO1chnc4TPpeF-233">
          <mxGeometry y="86" width="160" height="26" as="geometry" />
        </mxCell>
        <mxCell id="Fej6M75jO1chnc4TPpeF-239" value="+ getState(): State" style="text;strokeColor=none;fillColor=none;align=left;verticalAlign=top;spacingLeft=4;spacingRight=4;overflow=hidden;rotatable=0;points=[[0,0.5],[1,0.5]];portConstraint=eastwest;rounded=1;" vertex="1" parent="Fej6M75jO1chnc4TPpeF-233">
          <mxGeometry y="112" width="160" height="26" as="geometry" />
        </mxCell>
      </root>
    </mxGraphModel>
  </diagram>
</mxfile>
